<?xml version="1.0" standalone="no"?>
<!DOCTYPE svg PUBLIC "-//W3C//DTD SVG 20010904//EN"
 "http://www.w3.org/TR/2001/REC-SVG-20010904/DTD/svg10.dtd">
<svg version="1.0" xmlns="http://www.w3.org/2000/svg"
 width="2048.000000pt" height="2048.000000pt" viewBox="0 0 2048.000000 2048.000000"
 preserveAspectRatio="xMidYMid meet">

<g transform="translate(0.000000,2048.000000) scale(0.100000,-0.100000)"
fill="#000000" stroke="none">
<path d="M302 13023 c-178 -725 -268 -1397 -291 -2176 -54 -1809 354 -3563
1182 -5088 462 -850 1088 -1669 1776 -2323 80 -76 189 -180 242 -230 142 -135
216 -256 260 -421 19 -74 23 -151 50 -1040 31 -1038 35 -1100 90 -1230 165
-398 598 -601 1003 -471 39 13 546 232 1126 488 580 256 1087 474 1125 484 50
13 106 18 195 18 122 0 132 -2 405 -71 392 -100 656 -154 1030 -212 995 -155
2072 -174 3085 -55 3034 356 5656 1919 7267 4334 1121 1681 1681 3689 1622
5815 -21 764 -113 1449 -291 2178 l-50 207 -1832 0 -1831 0 0 -122 c0 -110 -3
-130 -26 -183 -14 -33 -526 -854 -1139 -1825 -612 -971 -1297 -2057 -1523
-2415 -225 -357 -433 -682 -462 -721 -234 -314 -585 -528 -972 -594 -142 -25
-367 -27 -502 -5 -184 30 -367 95 -527 186 -42 24 -640 466 -1328 983 -858
643 -1273 949 -1321 972 -168 81 -355 83 -522 4 -39 -18 -213 -143 -451 -323
-213 -161 -947 -718 -1632 -1238 -685 -520 -1266 -959 -1291 -977 -115 -78
-267 -103 -396 -64 -299 91 -447 419 -311 686 16 31 1489 2373 2891 4596 206
327 271 415 394 530 201 188 443 315 728 381 114 26 413 37 537 20 232 -33
453 -117 643 -244 33 -23 609 -453 1281 -958 672 -504 1239 -926 1261 -937
123 -63 275 -85 403 -58 122 26 198 70 450 262 247 189 669 509 1905 1447 413
313 757 576 765 583 12 12 -1127 14 -7477 14 l-7490 0 -51 -207z"/>
</g>
</svg>
